# xmcd
#
# Track frame offsets: 
#        150
#        15897
#        34052
#        49635
#        63666
#        78495
#        93575
#        110077
#        123188
#        140440
#        154585
#        169368
#        183000
#
# Disc length: 2645 seconds
#
# Revision: 0
# Processed by: cddbd v1.5.2PL0 Copyright (c) Steve Scherf et al.
# Submitted via: ExactAudioCopy v0.99pb4
#
DISCID=a20a530d
DTITLE=Marianne Weber - - Jouw Lach
DYEAR=2011
DGENRE=Chanson
TTITLE0=Als De Rozen Weer In Bloei Staan
TTITLE1=Vraag Me Niet Waarom
TTITLE2=Jouw Lach
TTITLE3=De Uitkomst Is Liefde
TTITLE4=Als Jij Niet Tussen Ons Kunt Kiezen
TTITLE5=Ik Had Een Glaasje Wijn Gedronken
TTITLE6=Amore
TTITLE7=Lieg Nog Eens Tegen M'n Ogen
TTITLE8=Alles Gaat Z'n Gangetje
TTITLE9=Een Lichtje Voor Jou
TTITLE10=Adios Gaucho
TTITLE11=Elke Traan
TTITLE12=Sunny Boy
EXTD=
EXTT0=
EXTT1=
EXTT2=
EXTT3=
EXTT4=
EXTT5=
EXTT6=
EXTT7=
EXTT8=
EXTT9=
EXTT10=
EXTT11=
EXTT12=
PLAYORDER=
